<?xml version="1.0"?>
<svg xmlns="http://www.w3.org/2000/svg" xmlns:xlink="http://www.w3.org/1999/xlink" xmlns:svgjs="http://svgjs.com/svgjs" version="1.1" width="512" height="512" x="0" y="0" viewBox="0 0 512 512" style="enable-background:new 0 0 512 512" xml:space="preserve" class=""><g><path xmlns="http://www.w3.org/2000/svg" d="m473.23 387.14-5.8 27.94a20.747 20.747 0 0 1 -20.32 16.53h-382.87a20.745 20.745 0 0 1 -20.41-16.99l-5.08-27.48z" fill="#ffc371" data-original="#4a5160" style="" class=""/><path xmlns="http://www.w3.org/2000/svg" d="m479.82 352h-447.64a17.551 17.551 0 0 0 -12.48 5.1 17.494 17.494 0 0 0 12.365 29.9h447.755a17.551 17.551 0 0 0 12.48-5.1 17.332 17.332 0 0 0 5.16-12.365 17.547 17.547 0 0 0 -17.64-17.535z" fill="#ffc371" data-original="#6d7486" style="" class=""/><path xmlns="http://www.w3.org/2000/svg" d="m272.75 142.73-33.75-.1v30.37h34v-29.99z" fill="#ffc371" data-original="#6d7486" style="" class=""/><g xmlns="http://www.w3.org/2000/svg" fill="#b0b5ca"><path d="m239.08 142.63a33.421 33.421 0 1 1 16.92 4.6 33.374 33.374 0 0 1 -16.92-4.6z" fill="#ffc371" data-original="#b0b5ca" style="" class=""/><path d="m272.92 173.35c102.39 7.57 183.69 83.31 191.31 178.51h-416.45c7.61-95.19 88.9-170.94 191.3-178.51q8.37-.63 16.92-.63t16.92.63z" fill="#ffc371" data-original="#b0b5ca" style="" class=""/><path d="m44.54 369.465a17.332 17.332 0 0 1 5.16-12.365 17.551 17.551 0 0 1 12.48-5.1h-30a17.551 17.551 0 0 0 -12.48 5.1 17.494 17.494 0 0 0 12.365 29.9h30a17.449 17.449 0 0 1 -17.525-17.535z" fill="#ffc371" data-original="#b0b5ca" style="" class=""/></g><path xmlns="http://www.w3.org/2000/svg" d="m73.83 414.62-5.08-27.48h-30l5.08 27.48a20.745 20.745 0 0 0 20.41 16.99h30a20.745 20.745 0 0 1 -20.41-16.99z" fill="#ffc371" data-original="#6d7486" style="" class=""/><path xmlns="http://www.w3.org/2000/svg" d="m269.08 173.35c.638-.048 1.28-.084 1.92-.126q-7.431-.495-15-.5-8.55 0-16.92.63c-102.4 7.57-183.69 83.32-191.3 178.51h50c7.61-95.194 68.9-170.944 171.3-178.514z" fill="#ff8c00" data-original="#d1d6e5" style="" class=""/><path xmlns="http://www.w3.org/2000/svg" d="m189.821 227.167c-2.065.891-4.134 1.838-6.15 2.815a6 6 0 1 0 5.234 10.8c1.859-.9 3.767-1.775 5.671-2.6a6 6 0 0 0 -4.755-11.017z" fill="#ff8c00" data-original="#284268" style="" class=""/><path xmlns="http://www.w3.org/2000/svg" d="m165.5 240.387a143.468 143.468 0 0 0 -39.632 39.331 6 6 0 0 0 9.961 6.692 131.542 131.542 0 0 1 36.342-36.048 6 6 0 1 0 -6.671-9.975z" fill="#ff8c00" data-original="#284268" style="" class=""/><path xmlns="http://www.w3.org/2000/svg" d="m479.822 346h-10.134c-5.254-48.223-28.973-92.748-67.267-125.876-34.191-29.581-77.421-47.733-123.421-52.27v-22.005a39.45 39.45 0 1 0 -46 0v22.005c-46 4.537-89.215 22.683-123.4 52.254-38.3 33.13-62.047 77.661-67.3 125.892h-9.7c-12.8 0-23.681 10-24.055 22.8a23.544 23.544 0 0 0 23.633 24.2h1.557l4.193 22.908a26.928 26.928 0 0 0 26.31 22.092h382.876a27.036 27.036 0 0 0 26.2-21.509l4.832-23.491h1.254c12.8 0 23.681-10 24.055-22.8a23.544 23.544 0 0 0 -23.633-24.2zm-251.243-232.191a27.421 27.421 0 1 1 27.421 27.421 27.452 27.452 0 0 1 -27.421-27.421zm38.421 37.87v15.3c-4-.169-7.346-.26-11-.26s-7 .091-11 .26v-15.3a39.783 39.783 0 0 0 22 0zm-149.515 77.506c37.626-32.545 86.815-50.468 138.515-50.468s100.9 17.928 138.531 50.483c35.637 30.83 57.862 72.1 63.075 116.8h-403.221c5.215-44.7 27.454-85.984 63.1-116.815zm362.337 151.815h-332.822a6 6 0 0 0 0 12h318.891l-4.331 21.052a14.988 14.988 0 0 1 -14.446 11.948h-382.876a14.927 14.927 0 0 1 -14.509-12.27l-3.791-20.73h67.062a6 6 0 0 0 0-12h-80.586a11.746 11.746 0 0 1 -11.877-11.457 11.534 11.534 0 0 1 11.641-11.543h447.408a11.746 11.746 0 0 1 11.877 11.457 11.534 11.534 0 0 1 -11.641 11.543z" fill="#ff8c00" data-original="#284268" style="" class=""/></g></svg>
